control3min_grf.mot
version=1
nRows=17
nColumns 19
inDegrees=yes
endheader
time	1_ground_force_vx	1_ground_force_vy	1_ground_force_vz	1_ground_force_px	1_ground_force_py	1_ground_force_pz	1_ground_torque_x	1_ground_torque_y	1_ground_torque_z	2_ground_force_vx	2_ground_force_vy	2_ground_force_vz	2_ground_force_px	2_ground_force_py	2_ground_force_pz	2_ground_torque_x	2_ground_torque_y	2_ground_torque_z
            2.502500	           -9.862589	          108.213541	          -12.580809	           -0.086105	            0.006285	           -0.413603	           -0.014159	            0.155349	           -0.018061	           12.505388	          276.014729	           21.252133	           -0.115039	            0.006118	           -0.711723	           -0.006312	           -0.139306	           -0.010726
            2.503000	           -9.814967	          105.327137	          -12.088876	           -0.086805	            0.006279	           -0.412257	           -0.019820	            0.212693	           -0.024412	           12.194759	          271.225369	           21.329046	           -0.114452	            0.006122	           -0.712047	           -0.002391	           -0.053181	           -0.004182
            2.503500	           -9.721988	          101.360327	          -11.876829	           -0.086172	            0.006282	           -0.412864	            0.005578	           -0.058153	            0.006814	           12.259951	          266.071592	           20.700563	           -0.114516	            0.006120	           -0.711802	           -0.001006	           -0.021825	           -0.001698
            2.504000	           -9.445409	           97.393159	          -11.573525	           -0.085237	            0.006282	           -0.412883	            0.032935	           -0.339596	            0.040355	           12.087859	          261.835329	           20.732458	           -0.114811	            0.006120	           -0.711884	            0.005319	            0.115207	            0.009122
            2.504500	           -9.306101	           94.506772	          -11.081819	           -0.086095	            0.006279	           -0.412026	            0.039490	           -0.401035	            0.047025	           12.103604	          257.417443	           20.247408	           -0.114760	            0.006119	           -0.711697	            0.003646	            0.077537	            0.006099
            2.505000	           -9.213236	           90.540158	          -10.915628	           -0.085458	            0.006283	           -0.412917	            0.027810	           -0.273298	            0.032949	           12.023779	          253.550636	           20.045937	           -0.114598	            0.006121	           -0.712137	            0.002694	            0.056809	            0.004491
            2.505500	           -8.845606	           86.934523	          -10.840286	           -0.083914	            0.006285	           -0.413483	           -0.001648	            0.016201	           -0.002020	           12.039106	          249.314913	           20.124681	           -0.114769	            0.006122	           -0.712422	           -0.000812	           -0.016822	           -0.001358
            2.506000	           -8.615964	           84.591113	          -10.850903	           -0.085328	            0.006277	           -0.411669	           -0.022677	            0.222646	           -0.028560	           12.198162	          244.160104	           19.871583	           -0.114656	            0.006120	           -0.711802	           -0.004784	           -0.095753	           -0.007793
            2.506500	           -8.247489	           81.344436	          -10.407167	           -0.085439	            0.006276	           -0.411451	           -0.024329	            0.239953	           -0.030699	           11.977041	          240.477631	           19.483117	           -0.115047	            0.006119	           -0.712046	           -0.005281	           -0.106032	           -0.008591
            2.507000	           -8.429127	           76.836186	          -10.059189	           -0.084313	            0.006289	           -0.414323	            0.011320	           -0.103186	            0.013509	           11.853024	          235.874062	           19.279037	           -0.114301	            0.006121	           -0.711726	           -0.001763	           -0.035075	           -0.002867
            2.507500	           -8.382515	           74.492151	           -9.931784	           -0.084650	            0.006281	           -0.412520	            0.042820	           -0.380524	            0.050734	           11.632006	          232.190751	           19.125212	           -0.114732	            0.006119	           -0.711631	            0.002649	            0.052879	            0.004356
            2.508000	           -7.923640	           71.427920	           -9.991918	           -0.087416	            0.006274	           -0.410943	            0.037612	           -0.339057	            0.047430	           11.644428	          228.693630	           18.643446	           -0.115062	            0.006119	           -0.712074	            0.000348	            0.006835	            0.000557
            2.508500	           -7.968273	           68.542480	           -9.729036	           -0.086450	            0.006279	           -0.412089	            0.020556	           -0.176819	            0.025098	           11.568070	          223.904918	           18.767187	           -0.114415	            0.006121	           -0.711985	            0.001361	            0.026349	            0.002209
            2.509000	           -7.645626	           65.836395	           -9.237012	           -0.085046	            0.006281	           -0.412620	           -0.025196	            0.216959	           -0.030440	           11.630165	          219.670003	           18.658198	           -0.114180	            0.006122	           -0.711877	           -0.001843	           -0.034810	           -0.002957
            2.509500	           -7.507358	           62.411177	           -9.206183	           -0.084061	            0.006286	           -0.413613	           -0.038627	            0.321118	           -0.047368	           11.548243	          216.356516	           18.224058	           -0.114618	            0.006122	           -0.712454	           -0.004444	           -0.083251	           -0.007012
            2.510000	           -7.414936	           60.247417	           -9.078119	           -0.087351	            0.006276	           -0.411475	           -0.024527	            0.199286	           -0.030028	           11.515289	          212.489742	           18.069496	           -0.114582	            0.006124	           -0.712740	           -0.007950	           -0.146699	           -0.012475
            2.510500	           -7.505313	           56.821171	           -8.817442	           -0.086293	            0.006269	           -0.409848	            0.009006	           -0.068185	            0.010581	           11.104835	          209.358512	           17.823865	           -0.114863	            0.006123	           -0.712953	            0.000358	            0.006744	            0.000574
